<svg width="398" height="212" viewBox="0 0 398 212" fill="none" xmlns="http://www.w3.org/2000/svg">
<path d="M377.386 187.551C377.231 187.535 377.076 187.535 376.922 187.551L375.666 187.651C374.605 187.741 373.141 187.875 371.528 188.042C369.914 188.21 368.456 188.372 367.401 188.5L366.15 188.662C365.995 188.674 365.841 188.702 365.692 188.746C365.846 188.765 366.002 188.765 366.155 188.746L367.412 188.651C368.473 188.562 369.936 188.422 371.55 188.26C373.164 188.098 374.627 187.931 375.682 187.802L376.933 187.64C377.087 187.629 377.239 187.599 377.386 187.551Z" fill="#E0E0E0"/>
<path d="M62.7186 15.3586C63.1709 12.0862 58.5527 9.39452 55.0848 9.11531C53.4095 8.98129 51.7342 9.23817 50.1427 8.6909C46.7474 7.50703 45.3904 3.10657 42.0789 1.72166C39.5995 0.677395 36.7515 1.60998 34.3502 2.83853C31.9489 4.06708 29.5756 5.56927 26.8896 5.74238C24.5553 5.88757 22.0256 5.022 19.9817 6.16679C18.4572 7.0156 17.6643 8.76908 16.2626 9.80218C14.8609 10.8353 13.0963 11.0251 11.3986 11.1201C9.70101 11.215 7.93078 11.2318 6.37275 11.941C4.81473 12.6502 3.5415 14.2864 3.85981 15.9617L62.7186 15.3586Z" fill="#EBEBEB"/>
<path d="M183.73 22.5317C184.328 18.1815 178.191 14.6019 173.584 14.2334C171.383 14.0547 169.116 14.3897 167.016 13.6749C162.499 12.1001 160.695 6.27011 156.295 4.41053C153 3.02562 149.208 4.25975 146.019 5.86804C142.831 7.47632 139.687 9.48668 136.102 9.71564C133.002 9.91109 129.635 8.76072 126.921 10.2741C124.894 11.3909 123.838 13.7363 121.973 15.1101C120.108 16.4838 117.768 16.7407 115.507 16.8636C113.245 16.9864 110.9 17.0088 108.839 17.9804C106.778 18.9521 105.075 21.1021 105.488 23.3302L183.73 22.5317Z" fill="#F5F5F5"/>
<path d="M393.627 13.6385C394.062 10.4722 389.595 7.86994 386.244 7.59631C384.647 7.46787 382.983 7.71358 381.464 7.18307C378.175 6.03828 376.862 1.7942 373.646 0.437207C371.245 -0.573556 368.486 0.33111 366.163 1.49823C363.84 2.66536 361.539 4.13962 358.942 4.29039C356.709 4.43559 354.229 3.59793 352.241 4.70363C350.772 5.52452 350.007 7.22216 348.639 8.22175C347.271 9.22135 345.579 9.41122 343.932 9.50057C342.284 9.58992 340.581 9.60667 339.079 10.2935C337.577 10.9804 336.337 12.5664 336.65 14.2026L393.627 13.6385Z" fill="#F5F5F5"/>
<path d="M303.906 30.6223C304.314 27.6402 300.109 25.1887 296.948 24.9318C295.44 24.8146 293.871 25.0435 292.442 24.5465C289.348 23.4687 288.114 19.4704 285.093 18.1971C282.859 17.2422 280.234 18.091 278.051 19.1911C275.867 20.2913 273.695 21.6818 271.249 21.8381C269.127 21.9721 266.815 21.1847 264.955 22.2234C263.565 22.9941 262.839 24.5968 261.56 25.5349C260.281 26.4731 258.684 26.6518 257.132 26.7412C255.579 26.8305 253.971 26.8417 252.558 27.4839C251.145 28.1261 249.978 29.6282 250.274 31.1528L303.906 30.6223Z" fill="#EBEBEB"/>
<path d="M12.0328 188.786C12.5602 189.027 13.0337 189.372 13.4252 189.8C13.8166 190.228 14.1179 190.73 14.3112 191.277C14.692 192.373 14.8143 193.543 14.6686 194.694C14.462 196.928 13.239 199.19 11.9099 200.993C10.0057 199.396 9.52543 196.526 9.36907 195.091C9.12336 192.79 10.0838 188.479 12.0328 188.786Z" fill="#FF725E"/>
<path d="M14.1548 204.623C14.0141 203.99 14.0433 203.332 14.2395 202.714C14.4356 202.096 14.7918 201.541 15.2717 201.105C15.7593 200.679 16.327 200.354 16.9417 200.15C17.5563 199.945 18.2055 199.866 18.8513 199.916C19.1511 199.906 19.4494 199.962 19.7253 200.079C20.0012 200.197 20.248 200.374 20.4484 200.597C20.5974 200.834 20.6807 201.106 20.6895 201.386C20.6983 201.665 20.6325 201.943 20.4987 202.188C20.2232 202.677 19.8247 203.085 19.3427 203.372C17.74 204.422 15.9921 205.142 14.1493 204.623" fill="#FF725E"/>
<path d="M11.8765 211.486C11.8858 211.332 11.9064 211.179 11.9379 211.028C11.9882 210.704 12.0608 210.291 12.1389 209.789C12.326 208.409 12.7333 207.069 13.3452 205.818C13.9838 204.566 14.9484 203.508 16.1373 202.758C16.4974 202.538 16.8815 202.36 17.2821 202.227C17.3896 202.19 17.4997 202.16 17.6116 202.138H17.7289C17.1937 202.334 16.6793 202.583 16.1932 202.881C15.0552 203.651 14.1295 204.696 13.5015 205.919C12.899 207.153 12.4848 208.471 12.273 209.828C12.1669 210.347 12.0831 210.766 12.0161 211.056C11.9832 211.204 11.9365 211.348 11.8765 211.486Z" fill="#263238"/>
<path d="M11.5917 192.131C11.5993 192.198 11.5993 192.265 11.5917 192.332C11.5917 192.483 11.5917 192.673 11.6364 192.89C11.6699 193.387 11.7145 194.108 11.7592 194.996C11.8485 196.777 11.9379 199.24 11.977 201.959C12.0161 204.679 11.977 207.142 11.977 208.929C11.977 209.817 11.9379 210.537 11.9156 211.04C11.9156 211.274 11.9156 211.464 11.9156 211.598C11.9216 211.665 11.9216 211.732 11.9156 211.799C11.907 211.732 11.907 211.665 11.9156 211.598C11.9156 211.453 11.9156 211.263 11.9156 211.04C11.9156 210.52 11.9156 209.805 11.9156 208.929C11.9156 207.147 11.9155 204.685 11.8876 201.965C11.8597 199.245 11.7759 196.788 11.7145 195.007C11.6866 194.13 11.6643 193.415 11.6419 192.896C11.6419 192.661 11.6419 192.472 11.6419 192.338C11.619 192.27 11.6022 192.201 11.5917 192.131Z" fill="#263238"/>
<path d="M10.9384 206.036C10.6862 204.691 10.1162 203.426 9.276 202.345C8.43577 201.265 7.3496 200.401 6.10796 199.826C5.47693 199.536 4.65603 199.357 4.15344 199.826C3.65086 200.295 3.77929 201.133 4.04175 201.775C4.61194 203.113 5.56636 204.252 6.78412 205.047C8.00187 205.842 9.4282 206.258 10.8825 206.243" fill="#FF725E"/>
<path d="M6.47064 201.926C6.6098 201.969 6.74444 202.025 6.87269 202.093C7.02728 202.162 7.17825 202.238 7.32502 202.322C7.49255 202.428 7.69917 202.523 7.88345 202.674C8.11383 202.822 8.3357 202.982 8.54799 203.154C8.79681 203.346 9.03366 203.553 9.25721 203.774C9.77024 204.279 10.2237 204.841 10.6086 205.45C10.9838 206.065 11.2891 206.721 11.5189 207.404C11.6146 207.703 11.6929 208.007 11.7534 208.314C11.8204 208.605 11.8483 208.873 11.8818 209.124C11.909 209.348 11.9239 209.574 11.9265 209.8C11.9352 209.969 11.9352 210.139 11.9265 210.308C11.9268 210.452 11.9118 210.597 11.8818 210.738C11.8483 210.738 11.8818 210.118 11.7702 209.141C11.7393 208.872 11.6927 208.605 11.6305 208.342C11.5646 208.042 11.4807 207.745 11.3792 207.454C10.928 206.105 10.1623 204.882 9.14551 203.886C8.92798 203.665 8.6987 203.457 8.45865 203.261C8.24087 203.071 8.01748 202.92 7.81644 202.775C7.02347 202.205 6.45388 201.959 6.47064 201.926Z" fill="#263238"/>
<path d="M372.438 191.449C373.27 192.834 375.096 192.521 375.984 191.778C376.872 191.035 377.307 189.885 377.709 188.791C378.62 186.3 379.547 183.681 379.184 181.051C379.105 180.256 378.812 179.497 378.335 178.856C378.092 178.54 377.77 178.293 377.401 178.141C377.032 177.989 376.63 177.937 376.235 177.99C375.314 178.164 374.688 179.012 374.219 179.828C372.847 182.238 372.029 184.924 371.823 187.69C371.645 188.976 371.859 190.286 372.438 191.449Z" fill="#FF725E"/>
<g opacity="0.2">
<path opacity="0.2" d="M372.438 191.449C373.27 192.834 375.096 192.521 375.984 191.778C376.872 191.035 377.307 189.885 377.709 188.791C378.62 186.3 379.547 183.681 379.184 181.051C379.105 180.256 378.812 179.497 378.335 178.856C378.092 178.54 377.77 178.293 377.401 178.141C377.032 177.989 376.63 177.937 376.235 177.99C375.314 178.164 374.688 179.012 374.219 179.828C372.847 182.238 372.029 184.924 371.823 187.69C371.645 188.976 371.859 190.286 372.438 191.449Z" fill="black"/>
</g>
<path d="M375.409 198.379C377.014 197.761 378.776 197.673 380.435 198.127C381.347 198.272 382.185 198.718 382.814 199.395C383.372 200.116 383.411 201.316 382.669 201.847C382.193 202.123 381.636 202.224 381.094 202.131C379.776 202.025 378.335 201.69 377.229 202.411C376.598 202.818 376.146 203.528 375.415 203.712C375.05 203.773 374.676 203.712 374.349 203.538C374.023 203.365 373.763 203.088 373.611 202.751C373.317 202.069 373.295 201.3 373.549 200.601C373.668 200.113 373.897 199.658 374.22 199.273C374.542 198.888 374.949 198.582 375.409 198.379Z" fill="#FF725E"/>
<path d="M369.763 193.18C370.282 192.592 370.649 191.887 370.833 191.124C371.017 190.362 371.012 189.567 370.818 188.807C370.42 187.281 369.606 185.895 368.467 184.803C367.185 183.487 365.658 182.435 363.972 181.704C363.322 181.388 362.612 181.214 361.889 181.196C361.527 181.192 361.17 181.277 360.848 181.442C360.526 181.608 360.249 181.849 360.041 182.145C359.482 183.05 359.873 184.228 360.32 185.194C361.107 186.9 362.028 188.541 363.073 190.103C363.916 191.359 364.888 192.605 366.256 193.241C367.624 193.878 369.093 193.917 369.908 192.995" fill="#FF725E"/>
<path d="M370.975 211.368C371.039 211.176 371.082 210.977 371.103 210.776C371.176 210.34 371.265 209.799 371.377 209.145C371.52 208.345 371.706 207.552 371.935 206.772C372.217 205.814 372.575 204.88 373.008 203.98C373.426 203.101 373.965 202.285 374.61 201.556C375.147 200.956 375.808 200.479 376.548 200.16C377.051 199.956 377.582 199.832 378.123 199.792C378.327 199.795 378.53 199.78 378.732 199.747C378.531 199.705 378.327 199.687 378.123 199.691C377.564 199.697 377.01 199.801 376.487 199.998C375.706 200.299 375.008 200.779 374.448 201.4C373.768 202.149 373.203 202.996 372.773 203.913C372.337 204.821 371.978 205.764 371.701 206.733C371.492 207.525 371.33 208.329 371.215 209.14C371.114 209.832 371.053 210.396 371.02 210.787C370.984 210.979 370.969 211.173 370.975 211.368Z" fill="#263238"/>
<path d="M371.175 210.117C371.201 210.026 371.215 209.932 371.215 209.838C371.215 209.631 371.215 209.369 371.265 209.045C371.315 208.352 371.382 207.37 371.505 206.119C371.739 203.656 372.192 200.261 372.867 196.542C373.543 192.822 374.331 189.483 374.995 187.104C375.157 186.501 375.313 185.987 375.459 185.496C375.604 185.004 375.721 184.619 375.833 184.29C375.944 183.96 376.011 183.731 376.073 183.53C376.107 183.442 376.129 183.35 376.14 183.256C376.095 183.339 376.058 183.425 376.028 183.513C375.95 183.709 375.855 183.954 375.743 184.256C375.632 184.558 375.481 184.988 375.33 185.457C375.179 185.926 375.001 186.456 374.828 187.054C373.913 190.159 373.168 193.311 372.594 196.497C371.918 200.222 371.477 203.628 371.304 206.102C371.203 207.342 371.159 208.336 371.142 209.039C371.142 209.363 371.142 209.626 371.142 209.838C371.144 209.932 371.156 210.025 371.175 210.117Z" fill="#263238"/>
<path d="M371.656 203.522C371.693 203.246 371.71 202.968 371.706 202.69C371.713 201.939 371.681 201.187 371.611 200.439C371.372 197.946 370.834 195.489 370.008 193.124C369.219 190.737 368.002 188.514 366.418 186.562C366.141 186.228 365.844 185.911 365.53 185.613C365.39 185.479 365.273 185.351 365.15 185.244L364.798 184.96C364.586 184.78 364.362 184.614 364.128 184.463C364.888 185.164 365.606 185.91 366.278 186.696C367.803 188.643 368.985 190.836 369.774 193.18C370.234 194.467 370.608 195.784 370.891 197.122C371.164 198.356 371.326 199.484 371.449 200.428C371.572 201.372 371.6 202.154 371.622 202.662C371.61 202.949 371.621 203.237 371.656 203.522Z" fill="#263238"/>
<path d="M322.029 108.869C322.029 108.869 321.236 112.219 317.182 112.482C313.128 112.744 306.388 112.778 306.388 112.778L300.803 110.192L298.709 102.525L304.958 105.367L322.029 108.869Z" fill="#263238"/>
<path d="M322.03 108.869C322.03 108.869 325.045 103.91 319.344 100.755C313.642 97.5995 304.467 100.04 304.467 100.04L305.282 109.304L322.03 108.869Z" fill="#C7C7C7"/>
<path d="M305.818 154.158H303.417C297.323 154.158 292.382 159.098 292.382 165.192V200.714C292.382 206.808 297.323 211.749 303.417 211.749H305.818C311.912 211.749 316.853 206.808 316.853 200.714V165.192C316.853 159.098 311.912 154.158 305.818 154.158Z" fill="#263238"/>
<path d="M155.538 154.158H153.137C147.043 154.158 142.103 159.098 142.103 165.192V200.714C142.103 206.808 147.043 211.749 153.137 211.749H155.538C161.633 211.749 166.573 206.808 166.573 200.714V165.192C166.573 159.098 161.633 154.158 155.538 154.158Z" fill="#263238"/>
<path d="M149.273 190.244C149.273 190.244 140.897 174.177 140.623 155.146C140.349 136.115 142.857 128.453 147.296 124.745C151.736 121.037 156.689 112.878 156.689 112.878C156.689 112.878 161.765 92.7245 168.801 79.7577C175.223 67.9245 187.09 69.1475 187.09 69.1475C187.09 69.1475 239.242 64.4734 271.871 69.0358C271.871 69.0358 280.767 68.4048 287.195 78.2946C293.622 88.1844 300.787 105.479 302.518 114.381C302.518 114.381 310.18 121.796 312.408 125.253C314.636 128.71 318.584 134.892 318.093 140.828C317.601 146.764 317.842 180.125 309.716 191.249L149.273 190.244Z" fill="#C7C7C7"/>
<path d="M163.988 103.748C163.988 103.748 168.807 80.5729 175.335 76.7477C181.863 72.9224 228.783 73.09 228.783 73.09L274.261 74.3799C274.261 74.3799 282.252 74.6089 284.844 78.8865C287.435 83.1641 294.974 103.424 294.069 104.887L224.053 105.674C224.053 105.674 174.754 106.574 172.733 106.121C170.711 105.669 164.418 106.25 163.988 103.748Z" fill="#263238"/>
<path d="M172.057 103.748C172.057 103.748 167.79 103.122 168.343 98.4428C168.773 94.813 173.112 84.6663 175.045 80.3161C175.319 79.6937 175.75 79.1528 176.294 78.7458C176.839 78.3388 177.48 78.0795 178.155 77.993C184.052 77.2335 198.973 74.7374 225.527 74.9719C259.368 75.2679 280.047 75.8877 281.928 78.3225C283.425 80.2603 289.227 95.7512 289.903 98.024C290.685 100.654 287.111 103.58 282.04 103.72C276.97 103.86 172.057 103.748 172.057 103.748Z" fill="#455A64"/>
<g opacity="0.4">
<path opacity="0.4" d="M274.725 155.179C270.855 147.987 260.278 149.037 260.278 149.037C260.278 149.037 205.764 148.852 200.018 149.037C194.272 149.221 192.786 149.249 189.262 152.946C185.739 156.643 174.972 178.673 174.972 178.673H285.849C285.849 178.673 279.109 163.333 274.725 155.179Z" fill="black"/>
</g>
<path d="M187.754 127.308L190.586 133.836C190.586 133.836 191.786 136.371 196.728 136.774C200.593 137.081 263.528 137.064 263.528 137.064C263.528 137.064 267.716 137.432 269.358 134.517C270.595 132.183 271.69 129.775 272.636 127.308H187.754Z" fill="#263238"/>
<path d="M149.122 135.685C149.119 132.795 149.276 129.907 149.591 127.035C149.77 125.817 152.099 121.45 158.945 120.713C160.726 120.518 162.251 120.428 163.53 120.395C165.743 120.325 167.946 120.734 169.988 121.593C172.029 122.453 173.861 123.743 175.357 125.376C176.366 126.483 177.185 127.749 177.781 129.123C180.227 134.897 181.45 141.967 181.45 141.967L149.122 135.685Z" fill="#EAEAEA"/>
<g opacity="0.3">
<path opacity="0.3" d="M149.636 135.685H149.122C149.122 135.685 147.369 140.973 151.473 143.24C154.182 144.737 163.284 146.211 169.159 147.038C170.78 147.266 172.431 147.159 174.01 146.723C175.588 146.287 177.06 145.531 178.334 144.502L181.45 141.989L149.636 135.685Z" fill="black"/>
</g>
<path d="M177.496 75.4577C177.496 75.4577 179.043 68.7286 181.221 66.4781C183.399 64.2276 185.962 64.289 187.403 65.0652C188.687 65.7577 190.547 68.8458 190.547 68.8458L186.967 69.1083C186.752 68.7532 186.429 68.476 186.045 68.3173C185.662 68.1586 185.237 68.1266 184.834 68.226C183.538 68.5945 182.645 70.979 182.645 70.979L181.098 74.8881L177.496 75.4577Z" fill="#E0E0E0"/>
<path d="M277.595 74.9551C277.595 74.9551 276.048 68.2539 273.87 65.9755C271.693 63.6971 269.129 63.7865 267.689 64.5627C266.404 65.2551 264.545 68.3433 264.545 68.3433L268.124 68.6113C268.339 68.2552 268.661 67.9769 269.045 67.8171C269.429 67.6574 269.854 67.6246 270.257 67.7234C271.553 68.092 272.446 70.4765 272.446 70.4765L273.993 74.3855L277.595 74.9551Z" fill="#E0E0E0"/>
<path d="M269.096 124.332C269.096 124.415 250.779 124.477 228.185 124.477C205.591 124.477 187.274 124.415 187.274 124.332C187.274 124.248 205.585 124.187 228.185 124.187C250.785 124.187 269.096 124.254 269.096 124.332Z" fill="#263238"/>
<g opacity="0.3">
<path opacity="0.3" d="M148.748 157.419C148.748 157.419 148.391 170.425 155.628 171.073L160.542 171.536C161.658 171.641 162.782 171.436 163.789 170.944C164.796 170.451 165.647 169.69 166.249 168.744L170.717 161.73L148.748 157.419Z" fill="black"/>
</g>
<g opacity="0.3">
<path opacity="0.3" d="M144.666 178.684L314.608 178.578C313.642 183.274 312.095 187.563 309.688 191.232L149.273 190.244C147.453 186.51 145.913 182.646 144.666 178.684Z" fill="black"/>
</g>
<path d="M136.094 108.869C136.094 108.869 136.881 112.219 140.941 112.482C145.001 112.744 151.736 112.778 151.736 112.778L157.353 110.376L159.677 102.525L153.171 105.367L136.094 108.869Z" fill="#263238"/>
<path d="M136.094 108.869C136.094 108.869 133.078 103.91 138.774 100.755C144.47 97.5995 153.634 100.04 153.634 100.04L152.825 109.304L136.094 108.869Z" fill="#C7C7C7"/>
<path d="M252.175 156.665H207.612C204.612 156.665 202.179 159.098 202.179 162.098V163.282C202.179 166.283 204.612 168.716 207.612 168.716H252.175C255.176 168.716 257.609 166.283 257.609 163.282V162.098C257.609 159.098 255.176 156.665 252.175 156.665Z" fill="#EAEAEA"/>
<path d="M164.663 103.882C164.697 103.938 163.669 104.474 162.251 105.658C161.862 105.979 161.489 106.32 161.134 106.68C160.732 107.054 160.363 107.501 159.961 107.953C159.129 108.98 158.396 110.083 157.772 111.248C157.167 112.425 156.681 113.66 156.32 114.933C156.167 115.485 156.042 116.044 155.946 116.609C155.849 117.101 155.78 117.599 155.74 118.1C155.578 119.942 155.74 121.093 155.661 121.093C155.595 120.832 155.558 120.564 155.55 120.294C155.515 119.979 155.501 119.662 155.505 119.345C155.49 118.926 155.499 118.506 155.533 118.088C155.562 117.579 155.619 117.072 155.706 116.57C155.796 115.991 155.915 115.416 156.063 114.85C156.415 113.554 156.899 112.298 157.51 111.102C158.138 109.912 158.887 108.79 159.744 107.752C160.123 107.305 160.526 106.878 160.95 106.473C161.313 106.115 161.697 105.78 162.1 105.468C162.425 105.2 162.764 104.95 163.116 104.72C163.373 104.535 163.642 104.367 163.921 104.217C164.157 104.083 164.406 103.971 164.663 103.882Z" fill="#263238"/>
<path d="M276.031 141.989C276.031 142.073 254.945 142.179 228.944 142.229C202.944 142.28 181.846 142.257 181.846 142.174C181.846 142.09 202.927 141.989 228.944 141.939C254.962 141.889 276.031 141.911 276.031 141.989Z" fill="#263238"/>
<path d="M237.411 79.1992C237.45 79.2662 229.855 83.8286 220.451 89.3795C211.047 94.9303 203.391 99.381 203.346 99.3084C203.301 99.2358 210.896 94.6846 220.306 89.1282C229.715 83.5718 237.366 79.1322 237.411 79.1992Z" fill="#E0E0E0"/>
<path d="M221.612 80.8074C221.657 80.8745 216.028 84.5489 209.053 89.0164C202.078 93.4839 196.377 97.0467 196.338 96.9797C196.298 96.9126 201.922 93.2381 208.897 88.7707C215.872 84.3032 221.573 80.7404 221.612 80.8074Z" fill="#E0E0E0"/>
<path d="M245.742 79.9699C245.787 80.0369 240.767 83.4601 234.534 87.6092C228.302 91.7584 223.209 95.0755 223.165 95.0085C223.12 94.9414 228.135 91.5238 234.372 87.3691C240.61 83.2144 245.697 79.9029 245.742 79.9699Z" fill="#E0E0E0"/>
<path d="M314.608 178.578C314.608 178.656 276.562 178.745 229.643 178.773C182.723 178.801 144.666 178.773 144.666 178.684C144.666 178.595 182.701 178.516 229.643 178.483C276.585 178.449 314.608 178.5 314.608 178.578Z" fill="#263238"/>
<path d="M301.876 124.343C301.932 124.037 302.008 123.734 302.105 123.438C302.338 122.623 302.524 121.795 302.663 120.959C302.862 119.722 302.922 118.467 302.842 117.217C302.774 115.689 302.42 114.187 301.798 112.789C301.128 111.409 300.292 110.117 299.307 108.941C298.52 107.97 297.629 107.088 296.649 106.311C295.989 105.764 295.231 105.347 294.415 105.083C294.2 105.009 293.977 104.961 293.751 104.937C293.67 104.931 293.592 104.914 293.516 104.887C293.516 104.887 293.594 104.887 293.756 104.887C293.99 104.888 294.224 104.922 294.449 104.988C295.278 105.22 296.052 105.614 296.727 106.149C297.741 106.917 298.663 107.8 299.474 108.779C300.487 109.968 301.342 111.282 302.021 112.688C302.379 113.41 302.638 114.176 302.792 114.967C302.941 115.703 303.036 116.45 303.076 117.201C303.149 118.469 303.071 119.742 302.842 120.992C302.689 121.832 302.478 122.661 302.211 123.472C302.116 123.757 302.032 123.974 301.976 124.125C301.92 124.276 301.887 124.348 301.876 124.343Z" fill="#263238"/>
<path d="M308.376 135.685C308.379 132.795 308.22 129.907 307.901 127.034C307.728 125.817 305.399 121.45 298.547 120.713C296.772 120.518 295.247 120.428 293.968 120.395C291.752 120.322 289.547 120.73 287.504 121.59C285.46 122.45 283.627 123.741 282.13 125.376C281.119 126.482 280.298 127.749 279.7 129.123C277.254 134.897 276.031 141.967 276.031 141.967L308.376 135.685Z" fill="#EAEAEA"/>
<g opacity="0.3">
<path opacity="0.3" d="M307.845 135.685H308.376C308.376 135.685 310.124 140.973 306.019 143.24C303.311 144.737 294.208 146.211 288.334 147.038C286.712 147.266 285.061 147.159 283.483 146.722C281.905 146.286 280.433 145.531 279.159 144.502L276.043 141.989L307.845 135.685Z" fill="black"/>
</g>
<g opacity="0.3">
<path opacity="0.3" d="M308.733 157.419C308.733 157.419 309.096 170.425 301.859 171.072L296.939 171.536C295.823 171.64 294.7 171.434 293.693 170.942C292.687 170.449 291.835 169.689 291.232 168.744L286.765 161.73L308.733 157.419Z" fill="black"/>
</g>
<path d="M397.57 211.855C397.57 211.939 308.567 212 198.802 212C89.0365 212 0 211.939 0 211.855C0 211.771 88.9806 211.71 198.802 211.71C308.623 211.71 397.57 211.782 397.57 211.855Z" fill="#263238"/>
<path d="M108.539 59.4652C108.539 59.4652 110.985 60.3224 106.086 90.4272H85.2483C85.5988 81.9483 85.6113 76.7171 81.5564 59.315C84.4735 58.7121 87.4307 58.3231 90.4045 58.1511C93.5543 57.9255 96.7161 57.9255 99.8658 58.1511C103.933 58.5203 108.539 59.4652 108.539 59.4652Z" fill="#EF3945"/>
<path opacity="0.6" d="M108.539 59.4652C108.539 59.4652 110.985 60.3224 106.086 90.4272H85.2483C85.5988 81.9483 85.6113 76.7171 81.5564 59.315C84.4735 58.7121 87.4307 58.3231 90.4045 58.1511C93.5543 57.9255 96.7161 57.9255 99.8658 58.1511C103.933 58.5203 108.539 59.4652 108.539 59.4652Z" fill="white"/>
<path d="M124.364 76.617C123.256 77.662 122.099 78.7132 120.941 79.7144C119.783 80.7156 118.601 81.6793 117.412 82.5303C116.838 82.9458 116.24 83.3281 115.622 83.6754C115.177 83.9387 114.702 84.1487 114.208 84.3012L114.127 84.0884L113.739 83.0559C112.764 80.2189 112.001 77.3138 111.455 74.3643C111.154 72.875 110.948 71.3669 110.723 69.8651C110.497 68.3633 110.335 66.8115 110.203 65.3848L104.966 65.7164C105.066 67.4247 105.266 68.9828 105.485 70.6098C105.704 72.2367 106.011 73.8073 106.355 75.403C107.025 78.6131 107.989 81.755 109.233 84.7892L109.753 85.9406L109.878 86.2222L109.947 86.3661C109.972 86.4303 110.002 86.4929 110.034 86.5539C110.214 86.9168 110.439 87.2553 110.704 87.5613C111.02 87.9228 111.4 88.2238 111.824 88.4499C112.242 88.6666 112.696 88.8085 113.163 88.8691C113.874 88.9455 114.593 88.8687 115.272 88.6439C116.222 88.3214 117.119 87.8573 117.931 87.2672C118.637 86.7662 119.312 86.2229 119.952 85.6403C122.339 83.4141 124.483 80.9411 126.348 78.2627L124.364 76.617Z" fill="#E4897B"/>
<path d="M108.539 59.4653C110.654 60.0034 112.13 68.7013 112.13 68.7013L106.305 72.6623C106.305 72.6623 100.717 63.9018 102.344 61.5615C104.04 59.1399 105.454 58.6768 108.539 59.4653Z" fill="#EF3945"/>
<path opacity="0.6" d="M108.539 59.4653C110.654 60.0034 112.13 68.7013 112.13 68.7013L106.305 72.6623C106.305 72.6623 100.717 63.9018 102.344 61.5615C104.04 59.1399 105.454 58.6768 108.539 59.4653Z" fill="white"/>
<path d="M97.1 205.922H102.231L102.575 194.039H97.4441L97.1 205.922Z" fill="#E4897B"/>
<path d="M102.406 205.327H96.6432C96.5433 205.325 96.446 205.359 96.3699 205.424C96.2937 205.488 96.244 205.579 96.2302 205.678L95.5731 210.233C95.5618 210.349 95.5747 210.465 95.611 210.575C95.6474 210.685 95.7063 210.787 95.7841 210.873C95.8618 210.959 95.9567 211.027 96.0626 211.075C96.1686 211.122 96.2832 211.146 96.3991 211.147C98.4078 211.147 99.3777 210.997 101.912 210.997C103.47 210.997 106.693 211.159 108.852 211.159C111.01 211.159 111.117 209.025 110.222 208.838C106.198 207.968 104.59 206.779 103.264 205.64C103.024 205.438 102.72 205.327 102.406 205.327Z" fill="#263238"/>
<path d="M102.569 194.039L102.394 200.165H97.2628L97.438 194.039H102.569Z" fill="#CE6F64"/>
<path d="M60.7752 174.102L64.6862 177.425L60.0681 181.543L56.1572 178.22L60.7752 174.102Z" fill="#CE6F64"/>
<path d="M104.334 206.222C103.791 206.21 103.251 206.149 102.719 206.041C102.694 206.035 102.671 206.022 102.653 206.003C102.635 205.984 102.623 205.96 102.619 205.934C102.616 205.91 102.62 205.884 102.631 205.862C102.642 205.84 102.66 205.821 102.682 205.809C102.913 205.69 104.959 204.645 105.591 204.989C105.649 205.023 105.698 205.07 105.734 205.127C105.77 205.184 105.792 205.248 105.798 205.315C105.811 205.423 105.798 205.533 105.76 205.636C105.722 205.738 105.66 205.83 105.579 205.903C105.212 206.148 104.773 206.26 104.334 206.222ZM103.12 205.865C104.259 206.053 105.103 206.003 105.416 205.728C105.469 205.678 105.509 205.616 105.533 205.547C105.557 205.479 105.564 205.405 105.554 205.334C105.553 205.306 105.545 205.28 105.531 205.257C105.516 205.234 105.496 205.215 105.473 205.202C105.135 205.033 103.958 205.459 103.12 205.865Z" fill="#EF3945"/>
<path d="M102.738 206.041C102.716 206.048 102.691 206.048 102.669 206.041C102.653 206.028 102.64 206.012 102.631 205.993C102.623 205.975 102.618 205.955 102.619 205.934C102.619 205.878 102.744 204.495 103.389 203.957C103.48 203.879 103.587 203.82 103.702 203.784C103.817 203.749 103.938 203.737 104.058 203.75C104.396 203.75 104.496 203.951 104.515 204.088C104.609 204.67 103.401 205.778 102.788 206.053L102.738 206.041ZM103.989 203.963C103.835 203.962 103.686 204.018 103.57 204.12C103.193 204.567 102.963 205.12 102.913 205.703C103.539 205.321 104.359 204.451 104.302 204.107C104.302 204.107 104.302 203.988 104.058 203.963H103.989Z" fill="#EF3945"/>
<path d="M106.086 90.4273C106.086 90.4273 110.141 129.943 109.796 145.587C109.446 161.857 103.483 198.976 103.483 198.976H96.5493C96.5493 198.976 97.6444 162.808 97.0311 146.826C96.3616 129.405 90.83 90.421 90.83 90.421L106.086 90.4273Z" fill="#EF3945"/>
<path opacity="0.5" d="M106.086 90.4273C106.086 90.4273 110.141 129.943 109.796 145.587C109.446 161.857 103.483 198.976 103.483 198.976H96.5493C96.5493 198.976 97.6444 162.808 97.0311 146.826C96.3616 129.405 90.83 90.421 90.83 90.421L106.086 90.4273Z" fill="black"/>
<path d="M124.308 76.2916L127.08 71.9114L128.65 76.8861C128.65 76.8861 126.379 79.2702 124.32 78.7008L124.308 76.2916Z" fill="#E4897B"/>
<path d="M51.8271 182.087L55.738 185.41L64.6862 177.425L60.7753 174.102L51.8271 182.087Z" fill="#E4897B"/>
<path d="M56.808 185.009L53.016 180.673C52.9533 180.596 52.8641 180.545 52.7657 180.53C52.6674 180.514 52.567 180.537 52.4841 180.591L48.617 183.094C48.5223 183.161 48.4428 183.247 48.3835 183.347C48.3243 183.446 48.2866 183.557 48.2731 183.672C48.2595 183.788 48.2703 183.904 48.3047 184.015C48.3392 184.126 48.3965 184.228 48.4731 184.315C49.8184 185.804 50.5443 186.455 52.2276 188.363C53.2538 189.54 54.6304 191.361 56.0446 192.981C57.4588 194.602 59.1734 193.288 58.6978 192.487C56.7017 188.889 57.1835 187.625 57.1459 185.86C57.1379 185.545 57.0181 185.244 56.808 185.009Z" fill="#263238"/>
<path d="M85.7738 43.7589C81.3936 48.6335 85.4547 59.5966 92.9011 55.2414C100.348 50.8862 93.8022 46.7187 93.8022 46.7187L85.7738 43.7589Z" fill="#263238"/>
<path d="M86.1368 54.6282C86.1156 54.6279 86.0947 54.6233 86.0754 54.6147C86.056 54.6061 86.0386 54.5936 86.0242 54.5781C84.0468 52.6132 83.0707 50.5483 83.1207 48.4458C83.2173 46.5283 84.0381 44.719 85.4172 43.3834C85.4318 43.3683 85.4493 43.3563 85.4687 43.348C85.488 43.3398 85.5088 43.3356 85.5299 43.3356C85.5509 43.3356 85.5717 43.3398 85.5911 43.348C85.6104 43.3563 85.6279 43.3683 85.6425 43.3834C85.6576 43.398 85.6697 43.4155 85.6779 43.4349C85.6861 43.4542 85.6904 43.4751 85.6904 43.4961C85.6904 43.5171 85.6861 43.5379 85.6779 43.5573C85.6697 43.5766 85.6576 43.5941 85.6425 43.6087C84.3379 44.8937 83.5574 46.6176 83.4524 48.4458C83.4023 50.4544 84.3472 52.438 86.2557 54.3403C86.2709 54.3549 86.2829 54.3724 86.2911 54.3918C86.2994 54.4111 86.3036 54.4319 86.3036 54.4529C86.3036 54.474 86.2994 54.4948 86.2911 54.5141C86.2829 54.5335 86.2709 54.551 86.2557 54.5656C86.2418 54.5842 86.2239 54.5995 86.2033 54.6103C86.1828 54.6211 86.1601 54.6272 86.1368 54.6282Z" fill="#263238"/>
<path d="M95.9048 34.26C95.3917 35.9308 99.2338 38.9344 98.2826 43.1645C97.7758 45.4234 98.7332 47.5447 99.8032 48.1705C100.873 48.7962 104.941 49.059 105.773 47.1254C104.394 45.0565 103.575 42.6656 103.395 40.1859C103.038 35.5866 97.3253 29.6358 95.9048 34.26Z" fill="#263238"/>
<path d="M96.4555 32.6143C94.6659 29.4856 80.0171 32.364 85.1921 42.7827C90.367 53.2015 96.4555 32.6143 96.4555 32.6143Z" fill="#263238"/>
<path d="M91.3681 47.4946C91.9625 50.542 92.5632 56.1174 90.4294 58.1324C90.4294 58.1324 91.2617 61.2173 96.9185 61.2173C103.138 61.2173 99.8908 58.1324 99.8908 58.1324C96.4992 57.3189 96.5868 54.8034 97.175 52.438L91.3681 47.4946Z" fill="#E4897B"/>
<path d="M93.7083 49.5159L97.15 52.4506C97.0009 53.0016 96.9025 53.565 96.8558 54.1339C95.5605 53.9462 93.7772 52.5195 93.6395 51.1616C93.565 50.6133 93.5883 50.0561 93.7083 49.5159Z" fill="#CE6F64"/>
<path d="M88.1331 41.913C89.3282 46.8627 89.7287 48.9839 92.7073 51.1052C97.1939 54.2903 103.013 51.731 103.345 46.5373C103.627 41.8504 101.624 34.5417 96.3742 33.3965C95.2131 33.135 94.0043 33.1765 92.864 33.517C91.7236 33.8574 90.6899 34.4855 89.8623 35.3407C89.0347 36.196 88.4409 37.2497 88.1381 38.4007C87.8353 39.5517 87.8335 40.7612 88.1331 41.913Z" fill="#E4897B"/>
<path d="M95.9485 199.226H104.083L104.684 196.629L95.5668 196.317L95.9485 199.226Z" fill="#EF3945"/>
<path opacity="0.2" d="M97.0999 100.258C102.219 110.558 98.1261 129.336 96.3177 136.32C95.3916 125.826 93.8147 113.004 92.607 103.581C93.383 98.2492 94.7408 95.5271 97.0999 100.258Z" fill="black"/>
<path d="M95.9674 41.963C96.0424 42.3697 96.3178 42.6638 96.5931 42.5887C96.8684 42.5136 97.0186 42.1695 96.9498 41.7627C96.8809 41.356 96.5994 41.0619 96.324 41.137C96.0487 41.2121 95.8985 41.5562 95.9674 41.963Z" fill="#263238"/>
<path d="M100.579 41.1495C100.648 41.5563 100.923 41.8504 101.205 41.7753C101.486 41.7002 101.63 41.3623 101.561 40.9555C101.493 40.5488 101.211 40.2547 100.936 40.2985C100.66 40.3423 100.504 40.7428 100.579 41.1495Z" fill="#263238"/>
<path d="M100.817 40.3674L101.743 39.9169C101.743 39.9169 101.38 40.7679 100.817 40.3674Z" fill="#263238"/>
<path d="M99.5027 42.0631C100.03 42.9297 100.674 43.7193 101.417 44.4097C101.235 44.5946 101.015 44.7378 100.772 44.8296C100.529 44.9214 100.269 44.9596 100.01 44.9416L99.5027 42.0631Z" fill="#DE5753"/>
<path d="M98.1514 46.8564C97.2662 46.8713 96.4103 46.5389 95.7673 45.9303C95.7444 45.9069 95.7315 45.8754 95.7315 45.8427C95.7315 45.8099 95.7444 45.7785 95.7673 45.7551C95.7783 45.7439 95.7915 45.7351 95.806 45.729C95.8205 45.723 95.836 45.7198 95.8518 45.7198C95.8675 45.7198 95.883 45.723 95.8975 45.729C95.912 45.7351 95.9252 45.7439 95.9362 45.7551C96.3168 46.1031 96.7741 46.3564 97.271 46.4945C97.7679 46.6326 98.2903 46.6515 98.7959 46.5498C98.8272 46.546 98.8589 46.5543 98.8844 46.5728C98.9099 46.5914 98.9275 46.6189 98.9336 46.6499C98.9391 46.6822 98.9317 46.7154 98.9129 46.7423C98.8942 46.7692 98.8657 46.7877 98.8334 46.7938C98.608 46.8317 98.38 46.8527 98.1514 46.8564Z" fill="#263238"/>
<path d="M97.7694 33.9033C97.6255 35.6429 92.9386 37.0321 92.2565 41.2934C91.8936 43.5712 90.2041 45.2169 88.9901 45.3796C87.321 45.3491 85.7198 44.7131 84.4847 43.5899C84.3547 43.445 84.2573 43.2739 84.1989 43.0881C84.1406 42.9024 84.1226 42.7063 84.1464 42.5131C84.1701 42.3198 84.2349 42.1339 84.3364 41.9678C84.4379 41.8017 84.5739 41.6592 84.735 41.55C86.4496 40.3486 88.2642 38.8843 88.6022 36.6191C89.0151 33.9597 98.1699 29.0788 97.7694 33.9033Z" fill="#263238"/>
<path d="M87.9201 46.1744C88.3036 47.08 89.0271 47.7989 89.935 48.1768C91.149 48.6648 91.8936 47.6198 91.6809 46.3996C91.4806 45.3046 90.6171 43.7339 89.3468 43.7652C89.069 43.7771 88.7985 43.8581 88.56 44.0009C88.3214 44.1437 88.1222 44.3439 87.9805 44.5831C87.8388 44.8224 87.7591 45.0932 87.7485 45.3711C87.738 45.6489 87.797 45.9251 87.9201 46.1744Z" fill="#E4897B"/>
<path d="M94.2779 40.7303C94.2406 40.7362 94.2026 40.7362 94.1653 40.7303C94.1091 40.6986 94.0669 40.6468 94.0472 40.5853C94.0275 40.5239 94.0316 40.4572 94.0589 40.3987C94.2273 40.0509 94.4764 39.7484 94.7856 39.5165C95.0948 39.2846 95.4549 39.1301 95.836 39.0659C95.9007 39.0592 95.9654 39.0786 96.0159 39.1196C96.0664 39.1607 96.0984 39.2201 96.1051 39.2849C96.1117 39.3496 96.0924 39.4143 96.0513 39.4648C96.0102 39.5152 95.9508 39.5473 95.8861 39.5539C95.5849 39.6078 95.301 39.7331 95.0583 39.9193C94.8155 40.1055 94.6208 40.3471 94.4907 40.624C94.4677 40.6588 94.4359 40.687 94.3985 40.7057C94.3612 40.7243 94.3196 40.7329 94.2779 40.7303Z" fill="#263238"/>
<path d="M102.25 38.659C102.217 38.6593 102.185 38.6527 102.154 38.6398C102.124 38.6269 102.097 38.6079 102.075 38.584C101.869 38.3568 101.613 38.1817 101.327 38.0729C101.041 37.9641 100.733 37.9248 100.429 37.9582C100.37 37.9609 100.312 37.9422 100.266 37.9055C100.22 37.8688 100.188 37.8166 100.178 37.7586C100.167 37.7006 100.178 37.6407 100.208 37.59C100.238 37.5392 100.285 37.5011 100.341 37.4826C100.725 37.4327 101.115 37.4767 101.478 37.6107C101.841 37.7448 102.166 37.9649 102.425 38.2523C102.471 38.298 102.496 38.3599 102.496 38.4244C102.496 38.4889 102.471 38.5507 102.425 38.5965C102.377 38.6385 102.314 38.6608 102.25 38.659Z" fill="#263238"/>
<path d="M88.2394 79.4329C85.7364 80.6844 83.1583 82.036 80.6491 83.056C80.1735 83.2562 79.6979 83.4252 79.2411 83.5754C79.2912 83.2813 79.335 82.9872 79.385 82.6931C79.6228 81.3665 79.9107 80.0336 80.2736 78.7008C80.6365 77.3679 81.0057 76.0226 81.4187 74.6897C82.2697 72.0428 83.2084 69.3396 84.1908 66.7803L79.335 64.7966C78.2127 67.5385 77.2413 70.3398 76.4252 73.1879C75.5722 76.0547 74.9446 78.9838 74.548 81.9484C74.4729 82.7181 74.3791 83.4815 74.3603 84.2825L74.329 84.8707C74.3084 85.2673 74.3399 85.6649 74.4229 86.0533C74.5046 86.3819 74.6353 86.6962 74.8108 86.9857C75.0156 87.3161 75.281 87.6049 75.593 87.8367C76.0686 88.1888 76.631 88.4051 77.2199 88.4625C77.5712 88.5052 77.9263 88.5052 78.2775 88.4625C78.5453 88.4209 78.8106 88.3645 79.0722 88.2935C79.4989 88.1739 79.917 88.0255 80.3237 87.8492C81.0587 87.54 81.7735 87.1847 82.4637 86.7854C85.0298 85.2778 87.4532 83.5394 89.7036 81.5917L88.2394 79.4329Z" fill="#E4897B"/>
<path d="M58.2035 187.512H58.1284C57.5027 187.443 56.8769 186.417 56.5327 185.816C56.5193 185.796 56.5121 185.772 56.5121 185.748C56.5121 185.723 56.5193 185.699 56.5327 185.679C56.5477 185.661 56.5675 185.648 56.5897 185.641C56.6119 185.635 56.6356 185.635 56.6579 185.641C56.8644 185.698 58.6415 186.211 58.8355 186.836C58.8559 186.907 58.8574 186.982 58.8399 187.053C58.8223 187.125 58.7863 187.19 58.7354 187.243C58.6708 187.323 58.59 187.388 58.4983 187.435C58.4066 187.481 58.3061 187.508 58.2035 187.512ZM56.8894 185.954C57.34 186.743 57.8093 187.206 58.1409 187.268C58.2205 187.273 58.3 187.258 58.3722 187.224C58.4444 187.19 58.5069 187.139 58.5539 187.074C58.5764 187.052 58.5924 187.024 58.6001 186.993C58.6078 186.962 58.607 186.929 58.5977 186.899C58.5164 186.542 57.5777 186.154 56.8957 185.929L56.8894 185.954Z" fill="#EF3945"/>
<path d="M57.4588 185.948C57.1693 185.956 56.8803 185.92 56.6016 185.841C56.5822 185.833 56.5651 185.821 56.552 185.804C56.5389 185.788 56.5301 185.768 56.5265 185.748C56.5223 185.727 56.5236 185.706 56.5302 185.686C56.5368 185.666 56.5484 185.649 56.564 185.635C56.6141 185.591 57.7404 184.634 58.4413 184.721C58.5346 184.731 58.6247 184.761 58.7049 184.809C58.785 184.858 58.8532 184.924 58.9043 185.003C58.9637 185.079 58.9959 185.173 58.9959 185.269C58.9959 185.365 58.9637 185.459 58.9043 185.535C58.4893 185.845 57.975 185.992 57.4588 185.948ZM56.9082 185.666C57.5339 185.779 58.5289 185.666 58.7479 185.385C58.7854 185.341 58.8167 185.266 58.7479 185.141C58.7155 185.09 58.6723 185.048 58.6214 185.017C58.5705 184.985 58.5132 184.966 58.4538 184.959C57.8785 185.032 57.3391 185.278 56.9082 185.666Z" fill="#EF3945"/>
<path d="M96.2114 41.187L97.1375 40.7302C97.1375 40.7302 96.7683 41.5813 96.2114 41.187Z" fill="#263238"/>
<path d="M100.585 90.4272C100.585 90.4272 95.8673 131.514 92.3005 144.705C88.0705 160.348 61.7827 181.436 61.7827 181.436L56.4514 176.912C56.4514 176.912 75.5054 154.016 78.7405 145.768C85.6238 128.16 79.7355 101.916 85.2483 90.4272H100.585Z" fill="#EF3945"/>
<path opacity="0.5" d="M100.585 90.4272C100.585 90.4272 95.8673 131.514 92.3005 144.705C88.0705 160.348 61.7827 181.436 61.7827 181.436L56.4514 176.912C56.4514 176.912 75.5054 154.016 78.7405 145.768C85.6238 128.16 79.7355 101.916 85.2483 90.4272H100.585Z" fill="black"/>
<path d="M55.6004 176.668L62.2146 182.287L64.6863 180.804L57.2024 173.846L55.6004 176.668Z" fill="#EF3945"/>
<path d="M84.9414 89.2071L84.4033 91.0843C84.3345 91.2282 84.5034 91.3721 84.7475 91.3721H106.192C106.38 91.3721 106.536 91.2845 106.549 91.1656L106.736 89.2884C106.736 89.157 106.586 89.0506 106.38 89.0506H85.2793C85.2142 89.0444 85.1486 89.0556 85.0892 89.0831C85.0299 89.1106 84.9788 89.1534 84.9414 89.2071Z" fill="#EF3945"/>
<path opacity="0.2" d="M84.9414 89.2071L84.4033 91.0843C84.3345 91.2282 84.5034 91.3721 84.7475 91.3721H106.192C106.38 91.3721 106.536 91.2845 106.549 91.1656L106.736 89.2884C106.736 89.157 106.586 89.0506 106.38 89.0506H85.2793C85.2142 89.0444 85.1486 89.0556 85.0892 89.0831C85.0299 89.1106 84.9788 89.1534 84.9414 89.2071Z" fill="white"/>
<path d="M87.7701 91.5662H87.2069C87.0943 91.5662 87.0067 91.5036 87.0192 91.4348L87.282 89.0131C87.282 88.938 87.3884 88.8817 87.501 88.8817H88.0642C88.1768 88.8817 88.2644 88.938 88.2582 89.0131L87.9891 91.4348C87.9829 91.5036 87.8827 91.5662 87.7701 91.5662Z" fill="#EF3945"/>
<path d="M104.603 91.5662H104.039C103.927 91.5662 103.839 91.5036 103.845 91.4348L104.114 89.0131C104.114 88.938 104.221 88.8817 104.333 88.8817H104.897C105.009 88.8817 105.091 88.938 105.084 89.0131L104.822 91.4348C104.815 91.5036 104.715 91.5662 104.603 91.5662Z" fill="#EF3945"/>
<path d="M96.1864 91.5662H95.6233C95.5106 91.5662 95.423 91.5036 95.4293 91.4348L95.6983 89.0131C95.6983 88.938 95.8047 88.8817 95.9174 88.8817H96.4805C96.5932 88.8817 96.6808 88.938 96.6745 89.0131L96.4054 91.4348C96.3741 91.5036 96.2991 91.5662 96.1864 91.5662Z" fill="#EF3945"/>
<path opacity="0.5" d="M87.7701 91.5662H87.2069C87.0943 91.5662 87.0067 91.5036 87.0192 91.4348L87.282 89.0131C87.282 88.938 87.3884 88.8817 87.501 88.8817H88.0642C88.1768 88.8817 88.2644 88.938 88.2582 89.0131L87.9891 91.4348C87.9829 91.5036 87.8827 91.5662 87.7701 91.5662Z" fill="black"/>
<path opacity="0.5" d="M104.603 91.5662H104.039C103.927 91.5662 103.839 91.5036 103.845 91.4348L104.114 89.0131C104.114 88.938 104.221 88.8817 104.333 88.8817H104.897C105.009 88.8817 105.091 88.938 105.084 89.0131L104.822 91.4348C104.815 91.5036 104.715 91.5662 104.603 91.5662Z" fill="black"/>
<path opacity="0.5" d="M96.1864 91.5662H95.6233C95.5106 91.5662 95.423 91.5036 95.4293 91.4348L95.6983 89.0131C95.6983 88.938 95.8047 88.8817 95.9174 88.8817H96.4805C96.5932 88.8817 96.6808 88.938 96.6745 89.0131L96.4054 91.4348C96.3741 91.5036 96.2991 91.5662 96.1864 91.5662Z" fill="black"/>
<path d="M94.04 65.4176L94.0401 65.4175C95.6232 63.3038 97.9808 61.9053 100.595 61.5292C103.208 61.1532 105.865 61.8304 107.979 63.4121L109.091 64.2438L109.944 63.1475C111.546 61.0866 113.894 59.7371 116.481 59.3894C119.068 59.0417 121.689 59.7235 123.778 61.2883C125.868 62.853 127.26 65.1756 127.654 67.7561C128.048 70.3326 127.417 72.9608 125.896 75.0768L113.116 92.1431L96.04 79.3623C96.0398 79.3622 96.0396 79.362 96.0395 79.3619C94.9927 78.5777 94.1107 77.595 93.4437 76.4699C92.7766 75.3447 92.3377 74.099 92.152 72.8042C91.9663 71.5093 92.0374 70.1905 92.3614 68.9231C92.6853 67.6557 93.2557 66.4646 94.04 65.4176Z" fill="#EF3945" stroke="white" stroke-width="2.82968"/>
<path d="M92.8262 72.3119L94.9287 76.1477L91.9939 79.1451L89.2469 74.7148L92.8262 72.3119Z" fill="#E4897B"/>
<path d="M87.5261 79.9835L89.2469 74.7147L91.9939 79.145C91.9939 79.145 90.3795 82.0172 88.2394 81.9734L87.5261 79.9835Z" fill="#E4897B"/>
<path d="M81.5563 59.315C79.4725 59.9407 76.9633 67.1368 76.9633 67.1368L85.0605 72.925C85.0605 72.925 88.014 66.9241 87.138 64.2271C86.2244 61.4175 83.9404 58.6079 81.5563 59.315Z" fill="#EF3945"/>
<path opacity="0.6" d="M81.5563 59.315C79.4725 59.9407 76.9633 67.1368 76.9633 67.1368L85.0605 72.925C85.0605 72.925 88.014 66.9241 87.138 64.2271C86.2244 61.4175 83.9404 58.6079 81.5563 59.315Z" fill="white"/>
<path d="M131.141 70.4658L132.236 74.7021L128.65 76.8923L127.08 71.9176L131.141 70.4658Z" fill="#E4897B"/>
</svg>
